<?xml version="1.0" encoding="iso-8859-1"?>
<!-- Generator: Adobe Illustrator 16.0.0, SVG Export Plug-In . SVG Version: 6.00 Build 0)  -->
<!DOCTYPE svg PUBLIC "-//W3C//DTD SVG 1.1//EN" "http://www.w3.org/Graphics/SVG/1.1/DTD/svg11.dtd">
<svg xmlns="http://www.w3.org/2000/svg" xmlns:xlink="http://www.w3.org/1999/xlink" version="1.1" id="Capa_1" x="0px" y="0px" width="512px" height="512px" viewBox="0 0 71.234 71.234" style="enable-background:new 0 0 71.234 71.234;" xml:space="preserve">
<g>
	<g>
		<g>
			<path d="M30.465,12.433c0.224,0.447,0.447,0.896,0.672,1.567h38.527v6.271H31.137c-0.225,0.448-0.448,1.12-0.672,1.567h40.768     v-9.185H30.465V12.433z" fill="#cacaca"/>
			<path d="M45.248,32.593h24.641v6.27H45.248c-0.223,0.449-0.447,1.121-0.672,1.57h26.656v-9.185H44.576     C44.801,31.473,45.025,32.145,45.248,32.593z" fill="#cacaca"/>
			<path d="M59.136,51.185h10.527v6.271H59.136c-0.225,0.447-0.446,1.119-0.672,1.566h12.771v-9.185H58.464     C58.689,50.063,58.912,50.735,59.136,51.185z" fill="#cacaca"/>
			<path d="M21.729,24.977c4.256,0,7.84-3.36,7.84-7.84c0-4.257-3.36-7.841-7.84-7.841c-2.464,0-4.704,1.12-6.048,3.137H0v9.184     h15.456C17.025,23.632,19.265,24.977,21.729,24.977z" fill="#cacaca"/>
			<path d="M35.616,43.567c4.256,0,7.84-3.356,7.84-7.838c0-4.256-3.358-7.84-7.84-7.84c-2.464,0-4.704,1.119-6.048,3.136H0v9.186     h29.345C30.912,42.224,33.153,43.567,35.616,43.567z" fill="#cacaca"/>
			<path d="M49.506,46.479c-2.465,0-4.705,1.121-6.049,3.138H0v9.186h43.457c1.344,1.791,3.584,3.136,6.271,3.136     c4.256,0,7.84-3.359,7.84-7.84C57.346,50.063,53.761,46.479,49.506,46.479z" fill="#cacaca"/>
		</g>
	</g>
</g>
<g>
</g>
<g>
</g>
<g>
</g>
<g>
</g>
<g>
</g>
<g>
</g>
<g>
</g>
<g>
</g>
<g>
</g>
<g>
</g>
<g>
</g>
<g>
</g>
<g>
</g>
<g>
</g>
<g>
</g>
</svg>
