<?xml version="1.0" encoding="iso-8859-1"?>
<!-- Generator: Adobe Illustrator 19.0.0, SVG Export Plug-In . SVG Version: 6.00 Build 0)  -->
<svg xmlns="http://www.w3.org/2000/svg" xmlns:xlink="http://www.w3.org/1999/xlink" version="1.1" id="Layer_1" x="0px" y="0px" viewBox="0 0 512 512" style="enable-background:new 0 0 512 512;" xml:space="preserve" width="512px" height="512px">
<g transform="translate(1 1)">
	<g>
		<g>
			<path d="M468.333-1H41.667C17.773-1-1,17.773-1,41.667v307.2V383c0,23.893,18.773,42.667,42.667,42.667h150.272l-20.48,68.267     h-10.325c-5.12,0-8.533,3.413-8.533,8.533s3.413,8.533,8.533,8.533H178.2h153.6h17.067c5.12,0,8.533-3.413,8.533-8.533     s-3.413-8.533-8.533-8.533h-10.325l-20.48-68.267h150.272C492.227,425.667,511,406.893,511,383v-34.133v-307.2     C511,17.773,492.227-1,468.333-1z M16.067,41.667c0-14.507,11.093-25.6,25.6-25.6h426.667c14.507,0,25.6,11.093,25.6,25.6     v298.667H16.067V41.667z M319.853,493.933h-130.56l20.48-68.267h89.6L319.853,493.933z M493.933,383     c0,14.507-11.093,25.6-25.6,25.6H306.2H203.8H41.667c-14.507,0-25.6-11.093-25.6-25.6v-25.6h477.867V383z" fill="#cacaca"/>
			<path d="M255,289.133c70.827,0,128-57.173,128-128s-57.173-128-128-128s-128,57.173-128,128S184.173,289.133,255,289.133z      M144.388,169.667h51.001c1.133,41.118,10.425,75.63,24.685,96.821C178.422,252.761,147.816,215.117,144.388,169.667z      M263.533,269.532v-99.865h34.005C295.982,221.889,280.293,259.688,263.533,269.532z M263.533,152.6V52.734     c16.76,9.845,32.449,47.643,34.005,99.866H263.533z M246.467,52.734V152.6h-34.005     C214.018,100.378,229.707,62.579,246.467,52.734z M246.467,169.667v99.865c-16.76-9.845-32.449-47.643-34.005-99.865H246.467z      M289.927,266.488c14.261-21.192,23.553-55.704,24.685-96.821h51.001C362.184,215.117,331.578,252.761,289.927,266.488z      M365.612,152.6h-51.001c-1.133-41.118-10.425-75.63-24.685-96.821C331.578,69.505,362.184,107.15,365.612,152.6z      M220.073,55.779c-14.261,21.192-23.553,55.704-24.685,96.821h-51.001C147.816,107.15,178.422,69.505,220.073,55.779z" fill="#cacaca"/>
			<path d="M408.6,306.2H101.4c-5.12,0-8.533,3.413-8.533,8.533s3.413,8.533,8.533,8.533h307.2c5.12,0,8.533-3.413,8.533-8.533     S413.72,306.2,408.6,306.2z" fill="#cacaca"/>
		</g>
	</g>
</g>
<g>
</g>
<g>
</g>
<g>
</g>
<g>
</g>
<g>
</g>
<g>
</g>
<g>
</g>
<g>
</g>
<g>
</g>
<g>
</g>
<g>
</g>
<g>
</g>
<g>
</g>
<g>
</g>
<g>
</g>
</svg>
