<?xml version="1.0" encoding="iso-8859-1"?>
<!-- Generator: Adobe Illustrator 19.0.0, SVG Export Plug-In . SVG Version: 6.00 Build 0)  -->
<svg xmlns="http://www.w3.org/2000/svg" xmlns:xlink="http://www.w3.org/1999/xlink" version="1.1" id="Layer_1" x="0px" y="0px" viewBox="0 0 488 488" style="enable-background:new 0 0 488 488;" xml:space="preserve" width="512px" height="512px">
<g transform="translate(0 -540.36)">
	<g>
		<g>
			<path d="M419.5,601.36L419.5,601.36h-82.8v-9.8c0-5.5-4.5-10-10-10h-32.8c-4.8-23.1-25.7-41.2-49.9-41.2     c-24.2,0-45.2,18-49.9,41.2h-32.8c-5.5,0-10,4.5-10,10v9.8H68.5c-5.5,0-10,4.5-10,10v407c0,5.5,4.5,10,10,10h351     c5.5,0,10-4.5,10-10v-407C429.5,605.86,425,601.36,419.5,601.36z M244,560.36c13.3,0,25,9,29.3,21.2h-58.5     C219,569.36,230.7,560.36,244,560.36z M316.7,601.56v20.4H171.3v-20.4H316.7z M409.5,1008.36L409.5,1008.36l-331,0v-387h72.8     v10.6c0,5.5,4.5,10,10,10h165.4c5.5,0,10-4.5,10-10v-10.6h72.8V1008.36z" fill="#cacaca"/>
			<path d="M141.2,733.26c0,5.5,4.5,10,10,10h185.6c5.5,0,10-4.5,10-10s-4.5-10-10-10H151.2C145.7,723.26,141.2,727.76,141.2,733.26     z" fill="#cacaca"/>
			<path d="M336.8,804.86H151.2c-5.5,0-10,4.5-10,10s4.5,10,10,10h185.6c5.5,0,10-4.5,10-10S342.3,804.86,336.8,804.86z" fill="#cacaca"/>
			<path d="M336.8,886.36H151.2c-5.5,0-10,4.5-10,10s4.5,10,10,10h185.6c5.5,0,10-4.5,10-10S342.3,886.36,336.8,886.36z" fill="#cacaca"/>
		</g>
	</g>
</g>
<g>
</g>
<g>
</g>
<g>
</g>
<g>
</g>
<g>
</g>
<g>
</g>
<g>
</g>
<g>
</g>
<g>
</g>
<g>
</g>
<g>
</g>
<g>
</g>
<g>
</g>
<g>
</g>
<g>
</g>
</svg>
